# xmcd
#
# Track frame offsets: 
#        150
#        39579
#        72113
#        174143
#        226071
#        278681
#
# Disc length: 4259 seconds
#
# Revision: 1
# Processed by: cddbd v1.5.2PL0 Copyright (c) Steve Scherf et al.
# Submitted via: ExactAudioCopyFreeDBPlugin 1.0
#
DISCID=4010a106
DTITLE=Yul Anderson - Rainbow dove and butterflies
DYEAR=2010
DGENRE=Classic Blues
TTITLE0=Breathing places
TTITLE1=Through the eyes of music
TTITLE2=Colored waters
TTITLE3=Desert sea
TTITLE4=Rainbow dove and butterflies
TTITLE5=Mild sunsets
EXTD=
EXTT0=
EXTT1=
EXTT2=
EXTT3=
EXTT4=
EXTT5=
PLAYORDER=
